<?xml version="1.0" encoding="UTF-8"?><svg width="24" height="24" viewBox="0 0 24 24" xmlns="http://www.w3.org/2000/svg" shape-rendering="crispEdges"><rect x="9" y="13" width="6" height="9" fill="#3F5023"/><rect x="8" y="20" width="8" height="1" fill="#1E2613"/><rect x="8" y="9" width="8" height="5" fill="#607F1F"/><rect x="9" y="8" width="6" height="1" fill="#607F1F"/><rect x="11" y="4" width="2" height="6" fill="#1E2613"/><rect x="20" y="10" width="1" height="1" fill="#E8D599"/><rect x="21" y="6" width="1" height="1" fill="#E8D599"/><rect x="2" y="9" width="1" height="1" fill="#E8D599"/><rect x="3" y="5" width="1" height="1" fill="#E8D599"/><rect x="4" y="7" width="1" height="1" fill="#E8D599"/><rect x="5" y="14" width="1" height="7" fill="#1E2613"/><rect x="18" y="14" width="1" height="7" fill="#1E2613"/><rect x="7" y="9" width="10" height="1" fill="#E8D599"/><rect x="6" y="21" width="12" height="1" fill="#E8D599"/><rect x="4" y="14" width="3" height="3" fill="#E8D599"/><rect x="4" y="17" width="3" height="2" fill="#E8D599"/><rect x="4" y="12" width="3" height="2" fill="#E8D599"/><rect x="9" y="6" width="1" height="5" fill="#1E2613"/><rect x="14" y="6" width="1" height="5" fill="#1E2613"/><rect x="6" y="11" width="3" height="3" fill="#E8D599"/><rect x="15" y="11" width="3" height="3" fill="#E8D599"/><rect x="10" y="7" width="4" height="2" fill="#1E2613"/></svg>