<?xml version="1.0" encoding="UTF-8"?><svg width="24" height="24" viewBox="0 0 24 24" xmlns="http://www.w3.org/2000/svg" shape-rendering="crispEdges"><rect x="6" y="15" width="12" height="5" fill="#39404F"/><rect x="4" y="17" width="2" height="2" fill="#1D2129"/><rect x="18" y="17" width="2" height="2" fill="#1D2129"/><rect x="8" y="10" width="8" height="4" fill="#54749A"/><rect x="11" y="2" width="2" height="8" fill="#1D2129"/><rect x="4" y="6" width="1" height="1" fill="#A3E6F9"/><rect x="19" y="8" width="1" height="1" fill="#A3E6F9"/><rect x="20" y="10" width="1" height="1" fill="#A3E6F9"/><rect x="21" y="6" width="1" height="1" fill="#A3E6F9"/><rect x="2" y="9" width="1" height="1" fill="#A3E6F9"/><rect x="5" y="14" width="1" height="7" fill="#1D2129"/><rect x="18" y="14" width="1" height="7" fill="#1D2129"/><rect x="7" y="9" width="10" height="1" fill="#A3E6F9"/><rect x="6" y="21" width="12" height="1" fill="#A3E6F9"/><rect x="10" y="8" width="4" height="1" fill="#A3E6F9"/><rect x="10" y="10" width="4" height="1" fill="#A3E6F9"/><rect x="9" y="7" width="6" height="1" fill="#A3E6F9"/><rect x="9" y="11" width="6" height="1" fill="#A3E6F9"/><rect x="9" y="6" width="1" height="5" fill="#1D2129"/><rect x="14" y="6" width="1" height="5" fill="#1D2129"/><rect x="9" y="1" width="6" height="2" fill="#A3E6F9"/><rect x="12" y="0" width="1" height="2" fill="#A3E6F9"/></svg>