<?xml version="1.0" encoding="UTF-8"?><svg width="24" height="24" viewBox="0 0 24 24" xmlns="http://www.w3.org/2000/svg" shape-rendering="crispEdges"><rect x="6" y="15" width="12" height="5" fill="#33434B"/><rect x="4" y="17" width="2" height="2" fill="#182024"/><rect x="18" y="17" width="2" height="2" fill="#182024"/><rect x="7" y="10" width="9" height="4" fill="#56707D"/><rect x="10" y="8" width="4" height="2" fill="#56707D"/><rect x="12" y="8" width="1" height="1" fill="#182024"/><rect x="13" y="7" width="1" height="1" fill="#182024"/><rect x="14" y="6" width="1" height="1" fill="#182024"/><rect x="15" y="5" width="1" height="1" fill="#182024"/><rect x="16" y="4" width="1" height="1" fill="#182024"/><rect x="20" y="9" width="1" height="1" fill="#78D9FF"/><rect x="21" y="5" width="1" height="1" fill="#78D9FF"/><rect x="2" y="8" width="1" height="1" fill="#78D9FF"/><rect x="3" y="10" width="1" height="1" fill="#78D9FF"/><rect x="4" y="6" width="1" height="1" fill="#78D9FF"/><rect x="5" y="14" width="1" height="7" fill="#182024"/><rect x="18" y="14" width="1" height="7" fill="#182024"/><rect x="7" y="9" width="10" height="1" fill="#78D9FF"/><rect x="6" y="21" width="12" height="1" fill="#78D9FF"/><rect x="11" y="3" width="2" height="2" fill="#78D9FF"/><rect x="10" y="2" width="4" height="1" fill="#78D9FF"/><rect x="10" y="1" width="4" height="1" fill="#78D9FF"/><rect x="9" y="0" width="6" height="1" fill="#78D9FF"/><rect x="14" y="4" width="1" height="1" fill="#182024"/><rect x="16" y="2" width="4" height="1" fill="#78D9FF"/><rect x="17" y="1" width="2" height="1" fill="#78D9FF"/><rect x="8" y="5" width="2" height="2" fill="#78D9FF"/></svg>