<?xml version="1.0" encoding="UTF-8"?><svg width="24" height="24" viewBox="0 0 24 24" xmlns="http://www.w3.org/2000/svg" shape-rendering="crispEdges"><rect x="7" y="13" width="10" height="8" fill="#69524A"/><rect x="7" y="10" width="4" height="4" fill="#907A72"/><rect x="13" y="10" width="4" height="4" fill="#907A72"/><rect x="9" y="6" width="6" height="4" fill="#32211D"/><rect x="4" y="9" width="1" height="1" fill="#FEC38A"/><rect x="19" y="5" width="1" height="1" fill="#FEC38A"/><rect x="20" y="7" width="1" height="1" fill="#FEC38A"/><rect x="21" y="9" width="1" height="1" fill="#FEC38A"/><rect x="5" y="14" width="1" height="7" fill="#32211D"/><rect x="18" y="14" width="1" height="7" fill="#32211D"/><rect x="7" y="9" width="10" height="1" fill="#FEC38A"/><rect x="8" y="6" width="8" height="4" fill="#FEC38A"/><rect x="9" y="7" width="2" height="2" fill="#2B2B2B"/><rect x="12" y="7" width="2" height="2" fill="#2B2B2B"/><rect x="8" y="10" width="8" height="2" fill="#FEC38A"/></svg>